{
  "accessors": [
    {
      "bufferView": 2,
      "componentType": 5126,
      "count": 2836,
      "max": [
        111.173583984375,
        26.824443817138672,
        32.76087951660156
      ],
      "min": [
        -23.906400680541992,
        -99.3623275756836,
        -32.760902404785156
      ],
      "type": "VEC3"
    },
    {
      "bufferView": 2,
      "byteOffset": 34032,
      "componentType": 5126,
      "count": 2836,
      "max": [
        0.9997434616088867,
        1.0,
        0.9982771873474121
      ],
      "min": [
        -0.9896172285079956,
        -0.9998328685760498,
        -0.9982771873474121
      ],
      "type": "VEC3"
    },
    {
      "bufferView": 1,
      "componentType": 5126,
      "count": 2836,
      "max": [
        0.9920945167541504,
        0.999500036239624
      ],
      "min": [
        0.0005000000237487257,
        0.0005000000237487257
      ],
      "type": "VEC2"
    },
    {
      "bufferView": 0,
      "componentType": 5125,
      "count": 2940,
      "type": "SCALAR"
    }
  ],
  "asset": {
    "extras": {
      "author": "fasih.lisan (https://sketchfab.com/fasih.lisan)",
      "license": "CC-BY-4.0 (http://creativecommons.org/licenses/by/4.0/)",
      "source": "https://sketchfab.com/3d-models/low-poly-lazy-deer-a71c7c8529f246b3a3a5fbc76c33fed2",
      "title": "Low Poly lazy deer"
    },
    "generator": "Sketchfab-12.67.0",
    "version": "2.0"
  },
  "bufferViews": [
    {
      "buffer": 0,
      "byteLength": 11760,
      "name": "floatBufferViews",
      "target": 34963
    },
    {
      "buffer": 0,
      "byteLength": 22688,
      "byteOffset": 11760,
      "byteStride": 8,
      "name": "floatBufferViews",
      "target": 34962
    },
    {
      "buffer": 0,
      "byteLength": 68064,
      "byteOffset": 34448,
      "byteStride": 12,
      "name": "floatBufferViews",
      "target": 34962
    }
  ],
  "buffers": [
    {
      "byteLength": 102512,
      "uri": "scene.bin"
    }
  ],
  "images": [
    {
      "uri": "textures/Line022_mtl_baseColor.jpeg"
    }
  ],
  "materials": [
    {
      "doubleSided": true,
      "emissiveFactor": [
        0.38162878787878785,
        0.38162878787878785,
        0.38162878787878785
      ],
      "emissiveTexture": {
        "index": 0
      },
      "name": "Line022_mtl",
      "pbrMetallicRoughness": {
        "baseColorTexture": {
          "index": 0
        },
        "metallicFactor": 0.0,
        "roughnessFactor": 0.6
      }
    }
  ],
  "meshes": [
    {
      "name": "Line022_Line022_mtl_0",
      "primitives": [
        {
          "attributes": {
            "NORMAL": 1,
            "POSITION": 0,
            "TEXCOORD_0": 2
          },
          "indices": 3,
          "material": 0,
          "mode": 4
        }
      ]
    }
  ],
  "nodes": [
    {
      "children": [
        1
      ],
      "matrix": [
        1.0,
        0.0,
        0.0,
        0.0,
        0.0,
        2.220446049250313e-16,
        -1.0,
        0.0,
        0.0,
        1.0,
        2.220446049250313e-16,
        0.0,
        0.0,
        0.0,
        0.0,
        1.0
      ],
      "name": "Sketchfab_model"
    },
    {
      "children": [
        2
      ],
      "matrix": [
        1.0,
        0.0,
        0.0,
        0.0,
        0.0,
        0.0,
        1.0,
        0.0,
        0.0,
        -1.0,
        0.0,
        0.0,
        0.0,
        0.0,
        0.0,
        1.0
      ],
      "name": "deer.fbx"
    },
    {
      "children": [
        3
      ],
      "name": "RootNode"
    },
    {
      "children": [
        4
      ],
      "matrix": [
        0.9999999999995299,
        9.53674316405802e-07,
        1.7484555314686969e-07,
        0.0,
        9.536742616473806e-07,
        -0.9999999403949007,
        -1.1924712628567141e-08,
        0.0,
        1.7484553135289094e-07,
        1.1924879374265335e-08,
        -0.9999999403953401,
        0.0,
        0.0,
        34.86151123046875,
        0.0,
        1.0
      ],
      "name": "Line022"
    },
    {
      "mesh": 0,
      "name": "Line022_Line022_mtl_0"
    }
  ],
  "samplers": [
    {
      "magFilter": 9729,
      "minFilter": 9987,
      "wrapS": 10497,
      "wrapT": 10497
    }
  ],
  "scene": 0,
  "scenes": [
    {
      "name": "Sketchfab_Scene",
      "nodes": [
        0
      ]
    }
  ],
  "textures": [
    {
      "sampler": 0,
      "source": 0
    }
  ]
}
