{
  "accessors": [
    {
      "bufferView": 2,
      "componentType": 5126,
      "count": 148,
      "max": [
        0.7228602766990662,
        1.4021464586257935,
        0.0812055766582489
      ],
      "min": [
        -0.7228602766990662,
        -1.4988163709640503,
        -0.029668137431144714
      ],
      "type": "VEC3"
    },
    {
      "bufferView": 2,
      "byteOffset": 1776,
      "componentType": 5126,
      "count": 148,
      "max": [
        1.0,
        0.9997907876968384,
        1.0
      ],
      "min": [
        -1.0,
        -1.0,
        -1.0
      ],
      "type": "VEC3"
    },
    {
      "bufferView": 1,
      "componentType": 5126,
      "count": 148,
      "max": [
        0.6362733244895935,
        1.0
      ],
      "min": [
        -0.0,
        0.0
      ],
      "type": "VEC2"
    },
    {
      "bufferView": 0,
      "componentType": 5125,
      "count": 306,
      "type": "SCALAR"
    },
    {
      "bufferView": 2,
      "byteOffset": 3552,
      "componentType": 5126,
      "count": 289,
      "max": [
        0.8151183128356934,
        1.4988163709640503,
        0.07283350825309753
      ],
      "min": [
        -0.8151183724403381,
        -1.4988163709640503,
        -0.07283350825309753
      ],
      "type": "VEC3"
    },
    {
      "bufferView": 2,
      "byteOffset": 7020,
      "componentType": 5126,
      "count": 289,
      "max": [
        1.0,
        1.0,
        1.0
      ],
      "min": [
        -1.0,
        -1.0,
        -1.0
      ],
      "type": "VEC3"
    },
    {
      "bufferView": 1,
      "byteOffset": 1184,
      "componentType": 5126,
      "count": 289,
      "max": [
        0.875,
        1.0
      ],
      "min": [
        0.0,
        0.0
      ],
      "type": "VEC2"
    },
    {
      "bufferView": 0,
      "byteOffset": 1224,
      "componentType": 5125,
      "count": 705,
      "type": "SCALAR"
    },
    {
      "bufferView": 2,
      "byteOffset": 10488,
      "componentType": 5126,
      "count": 15,
      "max": [
        0.6987888813018799,
        1.2077223062515259,
        0.0812055766582489
      ],
      "min": [
        -0.6987888813018799,
        -1.1573759317398071,
        0.0812055766582489
      ],
      "type": "VEC3"
    },
    {
      "bufferView": 2,
      "byteOffset": 10668,
      "componentType": 5126,
      "count": 15,
      "max": [
        4.0488043140385344e-08,
        0.0,
        1.0
      ],
      "min": [
        -2.1643529635184677e-08,
        0.0,
        1.0
      ],
      "type": "VEC3"
    },
    {
      "bufferView": 1,
      "byteOffset": 3496,
      "componentType": 5126,
      "count": 15,
      "max": [
        0.625,
        0.22913436591625214
      ],
      "min": [
        0.375,
        0.006655339617282152
      ],
      "type": "VEC2"
    },
    {
      "bufferView": 0,
      "byteOffset": 4044,
      "componentType": 5125,
      "count": 51,
      "type": "SCALAR"
    },
    {
      "bufferView": 2,
      "byteOffset": 10848,
      "componentType": 5126,
      "count": 6,
      "max": [
        -0.7947772741317749,
        1.172256588935852,
        0.05142826959490776
      ],
      "min": [
        -0.7947773337364197,
        0.9617474675178528,
        -0.05142826959490776
      ],
      "type": "VEC3"
    },
    {
      "bufferView": 2,
      "byteOffset": 10920,
      "componentType": 5126,
      "count": 6,
      "max": [
        -1.0,
        -4.310571455334866e-08,
        2.903726112890581e-07
      ],
      "min": [
        -1.0,
        -4.310571810606234e-08,
        2.9037255444563925e-07
      ],
      "type": "VEC3"
    },
    {
      "bufferView": 1,
      "byteOffset": 3616,
      "componentType": 5126,
      "count": 6,
      "max": [
        0.375,
        0.22467100620269775
      ],
      "min": [
        0.125,
        0.20330312848091125
      ],
      "type": "VEC2"
    },
    {
      "bufferView": 0,
      "byteOffset": 4248,
      "componentType": 5125,
      "count": 12,
      "type": "SCALAR"
    },
    {
      "bufferView": 2,
      "byteOffset": 10992,
      "componentType": 5126,
      "count": 20,
      "max": [
        0.8488835096359253,
        0.8547979593276978,
        0.025898069143295288
      ],
      "min": [
        0.7720706462860107,
        0.549105167388916,
        -0.025898069143295288
      ],
      "type": "VEC3"
    },
    {
      "bufferView": 2,
      "byteOffset": 11232,
      "componentType": 5126,
      "count": 20,
      "max": [
        1.0,
        1.0,
        1.0
      ],
      "min": [
        0.0,
        -1.0,
        -1.0
      ],
      "type": "VEC3"
    },
    {
      "bufferView": 1,
      "byteOffset": 3664,
      "componentType": 5126,
      "count": 20,
      "max": [
        0.875,
        1.0
      ],
      "min": [
        0.375,
        0.0
      ],
      "type": "VEC2"
    },
    {
      "bufferView": 0,
      "byteOffset": 4296,
      "componentType": 5125,
      "count": 30,
      "type": "SCALAR"
    },
    {
      "bufferView": 2,
      "byteOffset": 11472,
      "componentType": 5126,
      "count": 20,
      "max": [
        -0.7619545459747314,
        0.7440706491470337,
        0.025898069143295288
      ],
      "min": [
        -0.8387675285339355,
        0.489296555519104,
        -0.025898069143295288
      ],
      "type": "VEC3"
    },
    {
      "bufferView": 2,
      "byteOffset": 11712,
      "componentType": 5126,
      "count": 20,
      "max": [
        0.0,
        1.0,
        1.0
      ],
      "min": [
        -1.0,
        -1.0,
        -1.0
      ],
      "type": "VEC3"
    },
    {
      "bufferView": 1,
      "byteOffset": 3824,
      "componentType": 5126,
      "count": 20,
      "max": [
        0.625,
        1.0
      ],
      "min": [
        0.125,
        0.0
      ],
      "type": "VEC2"
    },
    {
      "bufferView": 0,
      "byteOffset": 4416,
      "componentType": 5125,
      "count": 30,
      "type": "SCALAR"
    },
    {
      "bufferView": 2,
      "byteOffset": 11952,
      "componentType": 5126,
      "count": 122,
      "max": [
        0.10397136211395264,
        -1.1707812547683716,
        0.08756622672080994
      ],
      "min": [
        -0.10397136211395264,
        -1.3787239789962769,
        0.06776022911071777
      ],
      "type": "VEC3"
    },
    {
      "bufferView": 2,
      "byteOffset": 13416,
      "componentType": 5126,
      "count": 122,
      "max": [
        0.7700563073158264,
        0.770058274269104,
        1.0
      ],
      "min": [
        -0.7700563669204712,
        -0.7700535655021667,
        0.6379725933074951
      ],
      "type": "VEC3"
    },
    {
      "bufferView": 1,
      "byteOffset": 3984,
      "componentType": 5126,
      "count": 122,
      "max": [
        0.6383136510848999,
        0.9813463687896729
      ],
      "min": [
        0.36168625950813293,
        0.3125
      ],
      "type": "VEC2"
    },
    {
      "bufferView": 0,
      "byteOffset": 4536,
      "componentType": 5125,
      "count": 300,
      "type": "SCALAR"
    },
    {
      "bufferView": 2,
      "byteOffset": 14880,
      "componentType": 5126,
      "count": 20,
      "max": [
        -0.7619545459747314,
        0.4325709044933319,
        0.025898069143295288
      ],
      "min": [
        -0.8387675285339355,
        0.17779678106307983,
        -0.025898069143295288
      ],
      "type": "VEC3"
    },
    {
      "bufferView": 2,
      "byteOffset": 15120,
      "componentType": 5126,
      "count": 20,
      "max": [
        0.0,
        1.0,
        1.0
      ],
      "min": [
        -1.0,
        -1.0,
        -1.0
      ],
      "type": "VEC3"
    },
    {
      "bufferView": 1,
      "byteOffset": 4960,
      "componentType": 5126,
      "count": 20,
      "max": [
        0.625,
        1.0
      ],
      "min": [
        0.125,
        0.0
      ],
      "type": "VEC2"
    },
    {
      "bufferView": 0,
      "byteOffset": 5736,
      "componentType": 5125,
      "count": 30,
      "type": "SCALAR"
    },
    {
      "bufferView": 2,
      "byteOffset": 15360,
      "componentType": 5126,
      "count": 20,
      "max": [
        -0.7618910074234009,
        1.1725444793701172,
        0.0023855268955230713
      ],
      "min": [
        -0.838703989982605,
        0.9646737575531006,
        -0.049410611391067505
      ],
      "type": "VEC3"
    },
    {
      "bufferView": 2,
      "byteOffset": 15600,
      "componentType": 5126,
      "count": 20,
      "max": [
        0.0,
        1.0,
        1.0
      ],
      "min": [
        -1.0,
        -1.0,
        -1.0
      ],
      "type": "VEC3"
    },
    {
      "bufferView": 1,
      "byteOffset": 5120,
      "componentType": 5126,
      "count": 20,
      "max": [
        0.625,
        1.0
      ],
      "min": [
        0.125,
        0.0
      ],
      "type": "VEC2"
    },
    {
      "bufferView": 0,
      "byteOffset": 5856,
      "componentType": 5125,
      "count": 30,
      "type": "SCALAR"
    },
    {
      "bufferView": 2,
      "byteOffset": 15840,
      "componentType": 5126,
      "count": 121,
      "max": [
        0.582492470741272,
        1.3550543785095215,
        -0.06933391094207764
      ],
      "min": [
        0.3597520589828491,
        1.1323139667510986,
        -0.08913993835449219
      ],
      "type": "VEC3"
    },
    {
      "bufferView": 2,
      "byteOffset": 17292,
      "componentType": 5126,
      "count": 121,
      "max": [
        0.7479492425918579,
        0.7479467391967773,
        -0.6637529730796814
      ],
      "min": [
        -0.7479481101036072,
        -0.7479467988014221,
        -0.9976222515106201
      ],
      "type": "VEC3"
    },
    {
      "bufferView": 1,
      "byteOffset": 5280,
      "componentType": 5126,
      "count": 121,
      "max": [
        0.6383136510848999,
        0.9813463687896729
      ],
      "min": [
        0.36168625950813293,
        0.3125
      ],
      "type": "VEC2"
    },
    {
      "bufferView": 0,
      "byteOffset": 5976,
      "componentType": 5125,
      "count": 240,
      "type": "SCALAR"
    },
    {
      "bufferView": 2,
      "byteOffset": 18744,
      "componentType": 5126,
      "count": 21,
      "max": [
        0.5326406955718994,
        1.3052022457122803,
        -0.08553200960159302
      ],
      "min": [
        0.40960395336151123,
        1.1821656227111816,
        -0.08553206920623779
      ],
      "type": "VEC3"
    },
    {
      "bufferView": 2,
      "byteOffset": 18996,
      "componentType": 5126,
      "count": 21,
      "max": [
        0.06892088055610657,
        0.06892083585262299,
        -0.9976220726966858
      ],
      "min": [
        -0.06892083585262299,
        -0.06892072409391403,
        -1.0
      ],
      "type": "VEC3"
    },
    {
      "bufferView": 1,
      "byteOffset": 6248,
      "componentType": 5126,
      "count": 21,
      "max": [
        0.6383136510848999,
        0.9813463687896729
      ],
      "min": [
        0.36168625950813293,
        0.704719066619873
      ],
      "type": "VEC2"
    },
    {
      "bufferView": 0,
      "byteOffset": 6936,
      "componentType": 5125,
      "count": 60,
      "type": "SCALAR"
    },
    {
      "bufferView": 2,
      "byteOffset": 19248,
      "componentType": 5126,
      "count": 59,
      "max": [
        0.3279963731765747,
        1.2775031328201294,
        -0.06933390349149704
      ],
      "min": [
        0.26366835832595825,
        1.2098647356033325,
        -0.0891399011015892
      ],
      "type": "VEC3"
    },
    {
      "bufferView": 2,
      "byteOffset": 19956,
      "componentType": 5126,
      "count": 59,
      "max": [
        0.9182971119880676,
        0.9655552506446838,
        -0.2601938247680664
      ],
      "min": [
        -0.9182978272438049,
        -0.9655564427375793,
        -0.9920722842216492
      ],
      "type": "VEC3"
    },
    {
      "bufferView": 1,
      "byteOffset": 6416,
      "componentType": 5126,
      "count": 59,
      "max": [
        0.6315442323684692,
        0.9813463687896729
      ],
      "min": [
        0.3684558570384979,
        0.3125
      ],
      "type": "VEC2"
    },
    {
      "bufferView": 0,
      "byteOffset": 7176,
      "componentType": 5125,
      "count": 90,
      "type": "SCALAR"
    },
    {
      "bufferView": 2,
      "byteOffset": 20664,
      "componentType": 5126,
      "count": 122,
      "max": [
        0.22689974308013916,
        1.3042118549346924,
        -0.06933391094207764
      ],
      "min": [
        0.10584414005279541,
        1.1831562519073486,
        -0.08913993835449219
      ],
      "type": "VEC3"
    },
    {
      "bufferView": 2,
      "byteOffset": 22128,
      "componentType": 5126,
      "count": 122,
      "max": [
        0.9007123708724976,
        0.9007100462913513,
        -0.43441617488861084
      ],
      "min": [
        -0.900710940361023,
        -0.9007121920585632,
        -1.0
      ],
      "type": "VEC3"
    },
    {
      "bufferView": 1,
      "byteOffset": 6888,
      "componentType": 5126,
      "count": 122,
      "max": [
        0.6383136510848999,
        0.9813463687896729
      ],
      "min": [
        0.36168625950813293,
        0.3125
      ],
      "type": "VEC2"
    },
    {
      "bufferView": 0,
      "byteOffset": 7536,
      "componentType": 5125,
      "count": 300,
      "type": "SCALAR"
    }
  ],
  "asset": {
    "extras": {
      "author": "chelC (https://sketchfab.com/chelC)",
      "license": "CC-BY-4.0 (http://creativecommons.org/licenses/by/4.0/)",
      "source": "https://sketchfab.com/3d-models/cellphone-06392fcec89d4b729a973e1aaab40a41",
      "title": "Cellphone"
    },
    "generator": "Sketchfab-12.66.0",
    "version": "2.0"
  },
  "bufferViews": [
    {
      "buffer": 0,
      "byteLength": 8736,
      "name": "floatBufferViews",
      "target": 34963
    },
    {
      "buffer": 0,
      "byteLength": 7864,
      "byteOffset": 8736,
      "byteStride": 8,
      "name": "floatBufferViews",
      "target": 34962
    },
    {
      "buffer": 0,
      "byteLength": 23592,
      "byteOffset": 16600,
      "byteStride": 12,
      "name": "floatBufferViews",
      "target": 34962
    }
  ],
  "buffers": [
    {
      "byteLength": 40192,
      "uri": "scene.bin"
    }
  ],
  "materials": [
    {
      "doubleSided": true,
      "name": "black",
      "pbrMetallicRoughness": {
        "baseColorFactor": [
          0.0171,
          0.0171,
          0.0171,
          1.0
        ],
        "metallicFactor": 0.0,
        "roughnessFactor": 0.6
      }
    },
    {
      "doubleSided": true,
      "name": "lambert1",
      "pbrMetallicRoughness": {
        "baseColorFactor": [
          0.5,
          0.5,
          0.5,
          1.0
        ],
        "metallicFactor": 0.3309832317073171,
        "roughnessFactor": 0.7883003048780488
      }
    },
    {
      "doubleSided": true,
      "name": "glow",
      "pbrMetallicRoughness": {
        "baseColorFactor": [
          0.35289999999999994,
          1.0,
          0.9106999999999994,
          1.0
        ],
        "metallicFactor": 0.0,
        "roughnessFactor": 0.7578125
      }
    },
    {
      "doubleSided": true,
      "name": "lambert4",
      "pbrMetallicRoughness": {
        "baseColorFactor": [
          0.7604,
          0.2939,
          0.0,
          1.0
        ],
        "metallicFactor": 0.0,
        "roughnessFactor": 0.5931783536585366
      }
    }
  ],
  "meshes": [
    {
      "name": "pCube1_black_0",
      "primitives": [
        {
          "attributes": {
            "NORMAL": 1,
            "POSITION": 0,
            "TEXCOORD_0": 2
          },
          "indices": 3,
          "material": 0,
          "mode": 4
        }
      ]
    },
    {
      "name": "pCube1_lambert1_0",
      "primitives": [
        {
          "attributes": {
            "NORMAL": 5,
            "POSITION": 4,
            "TEXCOORD_0": 6
          },
          "indices": 7,
          "material": 1,
          "mode": 4
        }
      ]
    },
    {
      "name": "pCube1_glow_0",
      "primitives": [
        {
          "attributes": {
            "NORMAL": 9,
            "POSITION": 8,
            "TEXCOORD_0": 10
          },
          "indices": 11,
          "material": 2,
          "mode": 4
        }
      ]
    },
    {
      "name": "pCube1_lambert4_0",
      "primitives": [
        {
          "attributes": {
            "NORMAL": 13,
            "POSITION": 12,
            "TEXCOORD_0": 14
          },
          "indices": 15,
          "material": 3,
          "mode": 4
        }
      ]
    },
    {
      "name": "pCube4_lambert1_0",
      "primitives": [
        {
          "attributes": {
            "NORMAL": 17,
            "POSITION": 16,
            "TEXCOORD_0": 18
          },
          "indices": 19,
          "material": 1,
          "mode": 4
        }
      ]
    },
    {
      "name": "pCube2_lambert1_0",
      "primitives": [
        {
          "attributes": {
            "NORMAL": 21,
            "POSITION": 20,
            "TEXCOORD_0": 22
          },
          "indices": 23,
          "material": 1,
          "mode": 4
        }
      ]
    },
    {
      "name": "pCylinder1_black_0",
      "primitives": [
        {
          "attributes": {
            "NORMAL": 25,
            "POSITION": 24,
            "TEXCOORD_0": 26
          },
          "indices": 27,
          "material": 0,
          "mode": 4
        }
      ]
    },
    {
      "name": "pCube3_lambert1_0",
      "primitives": [
        {
          "attributes": {
            "NORMAL": 29,
            "POSITION": 28,
            "TEXCOORD_0": 30
          },
          "indices": 31,
          "material": 1,
          "mode": 4
        }
      ]
    },
    {
      "name": "pCube5_lambert1_0",
      "primitives": [
        {
          "attributes": {
            "NORMAL": 33,
            "POSITION": 32,
            "TEXCOORD_0": 34
          },
          "indices": 35,
          "material": 1,
          "mode": 4
        }
      ]
    },
    {
      "name": "pCylinder2_black_0",
      "primitives": [
        {
          "attributes": {
            "NORMAL": 37,
            "POSITION": 36,
            "TEXCOORD_0": 38
          },
          "indices": 39,
          "material": 0,
          "mode": 4
        }
      ]
    },
    {
      "name": "pCylinder2_glow_0",
      "primitives": [
        {
          "attributes": {
            "NORMAL": 41,
            "POSITION": 40,
            "TEXCOORD_0": 42
          },
          "indices": 43,
          "material": 2,
          "mode": 4
        }
      ]
    },
    {
      "name": "pCylinder3_black_0",
      "primitives": [
        {
          "attributes": {
            "NORMAL": 45,
            "POSITION": 44,
            "TEXCOORD_0": 46
          },
          "indices": 47,
          "material": 0,
          "mode": 4
        }
      ]
    },
    {
      "name": "pCylinder4_glow_0",
      "primitives": [
        {
          "attributes": {
            "NORMAL": 49,
            "POSITION": 48,
            "TEXCOORD_0": 50
          },
          "indices": 51,
          "material": 2,
          "mode": 4
        }
      ]
    }
  ],
  "nodes": [
    {
      "children": [
        1
      ],
      "matrix": [
        1.0,
        0.0,
        0.0,
        0.0,
        0.0,
        2.220446049250313e-16,
        -1.0,
        0.0,
        0.0,
        1.0,
        2.220446049250313e-16,
        0.0,
        0.0,
        0.0,
        0.0,
        1.0
      ],
      "name": "Sketchfab_model"
    },
    {
      "children": [
        2
      ],
      "matrix": [
        1.0,
        0.0,
        0.0,
        0.0,
        0.0,
        0.0,
        1.0,
        0.0,
        0.0,
        -1.0,
        0.0,
        0.0,
        0.0,
        0.0,
        0.0,
        1.0
      ],
      "name": "0afa7ce863c94612b4cd4daf2466b007.fbx"
    },
    {
      "children": [
        3
      ],
      "name": "RootNode"
    },
    {
      "children": [
        4,
        9,
        11,
        13,
        15,
        17,
        19,
        22,
        24
      ],
      "matrix": [
        1.0,
        0.0,
        0.0,
        0.0,
        0.0,
        2.220446049250313e-16,
        -1.0,
        0.0,
        0.0,
        1.0,
        2.220446049250313e-16,
        0.0,
        0.0,
        0.0,
        0.0,
        1.0
      ],
      "name": "group1"
    },
    {
      "children": [
        5,
        6,
        7,
        8
      ],
      "name": "pCube1"
    },
    {
      "mesh": 0,
      "name": "pCube1_black_0"
    },
    {
      "mesh": 1,
      "name": "pCube1_lambert1_0"
    },
    {
      "mesh": 2,
      "name": "pCube1_glow_0"
    },
    {
      "mesh": 3,
      "name": "pCube1_lambert4_0"
    },
    {
      "children": [
        10
      ],
      "name": "pCube4"
    },
    {
      "mesh": 4,
      "name": "pCube4_lambert1_0"
    },
    {
      "children": [
        12
      ],
      "name": "pCube2"
    },
    {
      "mesh": 5,
      "name": "pCube2_lambert1_0"
    },
    {
      "children": [
        14
      ],
      "name": "pCylinder1"
    },
    {
      "mesh": 6,
      "name": "pCylinder1_black_0"
    },
    {
      "children": [
        16
      ],
      "name": "pCube3"
    },
    {
      "mesh": 7,
      "name": "pCube3_lambert1_0"
    },
    {
      "children": [
        18
      ],
      "name": "pCube5"
    },
    {
      "mesh": 8,
      "name": "pCube5_lambert1_0"
    },
    {
      "children": [
        20,
        21
      ],
      "name": "pCylinder2"
    },
    {
      "mesh": 9,
      "name": "pCylinder2_black_0"
    },
    {
      "mesh": 10,
      "name": "pCylinder2_glow_0"
    },
    {
      "children": [
        23
      ],
      "name": "pCylinder3"
    },
    {
      "mesh": 11,
      "name": "pCylinder3_black_0"
    },
    {
      "children": [
        25
      ],
      "name": "pCylinder4"
    },
    {
      "mesh": 12,
      "name": "pCylinder4_glow_0"
    }
  ],
  "scene": 0,
  "scenes": [
    {
      "name": "Sketchfab_Scene",
      "nodes": [
        0
      ]
    }
  ]
}
